<?xml version="1.0" standalone="no"?>
<!DOCTYPE svg PUBLIC "-//W3C//DTD SVG 20010904//EN"
 "http://www.w3.org/TR/2001/REC-SVG-20010904/DTD/svg10.dtd">
<svg version="1.0" xmlns="http://www.w3.org/2000/svg"
 width="1024.000000pt" height="1024.000000pt" viewBox="0 0 1024.000000 1024.000000"
 preserveAspectRatio="xMidYMid meet">
<metadata>
Created by potrace 1.14, written by Peter Selinger 2001-2017
</metadata>
<g transform="translate(0.000000,1024.000000) scale(0.100000,-0.100000)"
fill="#000000" stroke="none">
<path d="M2611 8686 c-50 -18 -106 -69 -128 -118 -19 -41 -20 -65 -19 -517 l1
-473 41 -37 c23 -20 66 -49 95 -65 95 -51 373 -191 414 -208 165 -68 232 -94
390 -151 205 -74 347 -117 386 -117 32 0 39 14 45 90 2 30 7 74 10 98 6 46 10
50 116 87 69 24 119 64 193 157 80 98 98 113 123 99 10 -5 52 -44 93 -87 314
-325 365 -366 595 -485 272 -141 364 -204 364 -248 0 -37 -12 -37 -145 -1 -86
22 -183 41 -240 46 -33 3 -85 10 -115 16 -67 13 -622 18 -698 6 -91 -14 -148
-51 -258 -164 -55 -57 -108 -104 -117 -104 -10 0 -29 7 -42 16 -36 24 -33 70
8 130 18 27 48 70 66 96 38 56 50 108 29 126 -20 16 -114 39 -243 57 -219 32
-632 154 -850 250 -16 7 -57 25 -90 40 -115 51 -130 55 -155 38 l-22 -15 6
-1182 c4 -649 8 -1198 9 -1218 4 -66 20 -67 78 -2 157 172 389 393 472 448
160 105 357 194 532 240 110 30 138 34 240 41 44 3 98 8 120 11 45 6 125 39
126 51 0 4 2 15 4 25 6 29 -34 79 -80 99 -25 11 -81 24 -124 29 -44 5 -93 16
-110 24 -59 31 -124 139 -113 190 3 16 10 17 45 11 83 -13 90 -12 113 22 12
18 41 81 64 140 24 59 46 113 50 118 4 6 15 30 24 54 26 68 94 180 138 227 46
50 112 80 193 88 33 3 76 9 95 14 46 11 442 13 500 2 25 -4 79 -11 120 -15
166 -14 219 -29 221 -65 1 -8 2 -89 3 -180 2 -180 5 -194 71 -322 19 -37 35
-76 35 -87 0 -23 -36 -45 -111 -67 -69 -21 -84 -47 -67 -116 17 -70 13 -91
-25 -132 -34 -36 -52 -42 -222 -81 -193 -44 -257 -82 -297 -172 -58 -131 -12
-267 175 -523 121 -165 248 -274 398 -343 53 -24 93 -32 151 -28 37 2 148 93
327 269 181 179 301 324 346 417 42 85 48 124 26 153 -15 19 -89 46 -158 58
-15 3 -36 7 -45 10 -10 3 -30 7 -45 10 -209 35 -451 96 -505 126 -80 46 -79
161 2 203 26 14 101 27 148 27 13 0 35 14 50 30 59 65 88 89 119 97 59 17 172
-3 214 -38 l23 -18 -22 -56 c-27 -71 -20 -79 80 -102 133 -30 150 -25 209 57
46 63 89 91 130 83 12 -3 57 -16 98 -29 42 -14 102 -30 134 -35 71 -13 137
-41 165 -71 12 -13 23 -43 27 -74 4 -28 11 -58 16 -67 12 -24 71 -44 224 -75
6 -1 46 -9 90 -18 44 -9 89 -18 100 -20 11 -2 94 -20 185 -40 91 -19 176 -37
190 -40 23 -4 77 -16 315 -68 50 -10 103 -21 120 -23 16 -3 70 -14 120 -25
327 -72 405 -86 453 -81 17 2 15 47 -4 66 -9 9 -42 32 -73 52 -45 29 -2758
1660 -2866 1723 -16 10 -588 352 -1270 762 -682 409 -1286 770 -1343 802 -153
87 -191 97 -261 72z m2873 -3261 c23 -21 24 -26 14 -62 -5 -21 -42 -112 -80
-203 -61 -143 -127 -305 -160 -390 -5 -14 -8 -25 -6 -25 1 0 -7 -15 -20 -32
-14 -20 -32 -33 -45 -33 -47 0 -207 118 -207 153 0 23 52 113 160 277 6 8 50
76 99 150 50 74 96 142 103 150 43 51 98 56 142 15z"/>
<path d="M3765 5413 c-292 -49 -514 -307 -650 -754 -19 -63 -37 -125 -39 -139
-70 -328 -98 -473 -121 -630 -3 -19 -10 -57 -15 -85 -8 -45 -40 -232 -55 -325
-12 -75 -66 -338 -80 -385 -84 -296 -108 -367 -177 -515 -22 -47 -65 -127 -95
-178 -30 -51 -59 -108 -63 -128 -4 -19 -7 -153 -6 -297 2 -232 4 -266 20 -297
53 -101 178 -152 241 -98 17 15 58 98 119 243 52 121 124 288 161 370 37 83
114 259 171 393 58 134 119 273 136 310 17 37 46 103 65 147 46 108 90 179
123 198 37 22 73 22 250 -2 85 -12 175 -24 200 -27 76 -9 191 -40 415 -111
221 -71 245 -104 214 -293 -14 -81 -7 -120 21 -120 18 0 97 42 180 95 19 12
148 88 285 170 138 81 262 156 277 166 15 10 29 19 31 19 10 0 2132 1274 2135
1283 2 4 8 7 12 7 12 0 663 392 706 425 70 53 43 71 -171 111 -11 2 -40 8 -65
13 -25 6 -58 12 -75 15 -30 5 -249 51 -480 101 -66 14 -181 39 -255 55 -74 16
-249 54 -388 85 -139 30 -268 55 -286 55 -19 0 -50 -11 -74 -27 -62 -42 -182
-152 -232 -211 -25 -29 -50 -58 -55 -65 -6 -7 -55 -75 -110 -152 -54 -77 -101
-142 -105 -145 -3 -3 -37 -45 -75 -95 -38 -49 -82 -106 -99 -126 -17 -19 -49
-57 -71 -84 -164 -202 -276 -295 -370 -308 -130 -18 -495 121 -670 256 -5 4
-48 36 -95 71 -90 68 -114 88 -195 165 -71 67 -105 91 -126 91 -51 0 0 -100
126 -249 11 -12 58 -62 105 -111 47 -48 105 -109 130 -136 l45 -48 1 -146 c2
-169 -18 -326 -44 -352 -32 -33 -158 -45 -432 -43 -140 1 -266 5 -280 8 -25 6
-68 13 -145 24 -22 3 -64 14 -93 25 -41 15 -56 27 -71 56 -19 38 -56 175 -66
247 -4 22 -10 56 -15 75 -5 19 -12 60 -15 90 -8 59 -11 79 -21 124 -7 34 -7
340 0 376 3 13 8 42 11 65 3 22 8 47 10 55 3 8 7 31 9 50 7 49 45 168 64 199
80 132 139 198 263 297 36 29 78 67 93 85 l28 33 -23 18 c-21 18 -77 22 -144
11z m-15 -1928 c3 -2 43 -6 90 -10 47 -4 88 -8 91 -11 4 -2 31 -6 60 -9 30 -4
79 -10 109 -16 30 -5 73 -11 95 -14 139 -17 199 -48 188 -96 -20 -90 -27 -97
-93 -93 -72 4 -663 134 -699 154 -45 24 -44 81 1 100 20 8 143 4 158 -5z m846
-60 c21 -32 27 -156 11 -221 -10 -38 -17 -49 -37 -54 -54 -15 -92 22 -93 89 0
57 23 162 41 187 23 31 57 30 78 -1z"/>
</g>
</svg>
